Coordinates
version=1
nRows=16
nColumns=22
inDegrees=yes

Units are S.I. units (second, meters, Newtons, ...)
If the header above contains a line with 'inDegrees', this indicates whether rotational values are in degrees (yes) or radians (no).

endheader
time	pelvis_tilt	pelvis_list	pelvis_rotation	pelvis_tx	pelvis_ty	pelvis_tz	hip_flexion_r	hip_adduction_r	hip_rotation_r	knee_angle_r	ankle_angle_r	subtalar_angle_r	hip_flexion_l	hip_adduction_l	hip_rotation_l	knee_angle_l	ankle_angle_l	subtalar_angle_l	lumbar_extension	lumbar_bending	lumbar_rotation
      1.75000000	      4.04412885	      1.08341319	     57.47210701	      0.71324506	      0.89914561	      0.73172626	     21.69532811	     -2.96859395	      2.24601713	     -4.74776092	     -2.70490899	     17.75267799	    -12.11864973	      3.16737601	      3.48506441	    -19.09839948	     18.73001116	    -13.28078422	     -9.56959511	     -1.81258446	     -8.53985011
      1.76000000	      3.95481779	      1.13027285	     58.20379523	      0.71914873	      0.89775945	      0.72506748	     22.08573948	     -2.96294635	      2.36933514	     -6.08089107	     -2.50856207	     17.00881534	    -12.61547738	      2.96568047	      3.93278981	    -19.26839170	     18.75898223	    -13.23989042	     -9.50543992	     -1.92875790	     -8.43830749
      1.77000000	      3.84013693	      1.16629048	     58.93225644	      0.72509591	      0.89647446	      0.71830947	     22.46912313	     -2.96942711	      2.61197519	     -7.58574250	     -2.34338778	     16.25933298	    -13.06495065	      2.76846168	      4.40855625	    -19.48328730	     18.67118351	    -13.23083133	     -9.42110781	     -2.06136419	     -8.33993973
      1.78000000	      3.72916313	      1.15396050	     59.64274018	      0.73117348	      0.89526748	      0.71139968	     22.82245269	     -2.92777957	      2.97151679	     -9.15226087	     -2.18594658	     15.44745844	    -13.47278956	      2.53004701	      4.86841495	    -19.71019337	     18.50374247	    -13.24622427	     -9.27877999	     -2.16212602	     -8.21594402
      1.79000000	      3.62096957	      1.11314103	     60.35569868	      0.73735693	      0.89416899	      0.70431460	     23.10452148	     -2.85547354	      3.38443465	    -10.69664941	     -2.04408866	     14.64736473	    -13.84939558	      2.26029993	      5.30892929	    -19.96100589	     18.22813277	    -13.26962121	     -9.09779992	     -2.24446538	     -8.08327556
      1.80000000	      3.51960998	      1.04578839	     61.07274537	      0.74366154	      0.89318609	      0.69702211	     23.29988432	     -2.75100833	      3.80281395	    -12.16101262	     -1.92087473	     13.87317408	    -14.21005090	      1.95706826	      5.71294157	    -20.21409895	     17.84966679	    -13.28781148	     -8.87575804	     -2.30767646	     -7.94814143
      1.81000000	      3.44796939	      0.94472721	     61.80053722	      0.75007731	      0.89232357	      0.68950270	     23.39377868	     -2.59692705	      4.17236964	    -13.49150095	     -1.80204658	     13.06293604	    -14.53526360	      1.59676195	      6.04235981	    -20.51848942	     17.35076002	    -13.29631337	     -8.61384711	     -2.32425349	     -7.78965128
      1.82000000	      3.41489062	      0.81372142	     62.53764436	      0.75659949	      0.89159710	      0.68175459	     23.38607520	     -2.39335234	      4.46254219	    -14.66608172	     -1.72856871	     12.23277107	    -14.82540754	      1.17411796	      6.27472444	    -20.88115576	     16.73287379	    -13.28735317	     -8.31938820	     -2.29079164	     -7.61388852
      1.83000000	      3.42789921	      0.65844657	     63.27602025	      0.76319884	      0.89101861	      0.67380077	     23.29028005	     -2.13894281	      4.67476472	    -15.69014218	     -1.72127596	     11.39501790	    -15.07134802	      0.69319599	      6.40061067	    -21.32853784	     16.01910681	    -13.25911825	     -8.00290210	     -2.19933731	     -7.41133463
      1.84000000	      3.49283845	      0.47839195	     64.00456732	      0.76987636	      0.89060307	      0.66566472	     23.13559537	     -1.83036910	      4.79446490	    -16.59735824	     -1.78426081	     10.59302998	    -15.25929763	      0.15394659	      6.40580833	    -21.88164216	     15.19131829	    -13.21992136	     -7.66611808	     -2.04945789	     -7.17070873
      1.85000000	      3.60629753	      0.28316807	     64.71234823	      0.77659703	      0.89036634	      0.65735476	     22.95925498	     -1.48008504	      4.80923955	    -17.45849192	     -1.87958506	      9.83750346	    -15.38824445	     -0.42535117	      6.29872151	    -22.54446823	     14.23282130	    -13.17285346	     -7.31632480	     -1.84461782	     -6.88747989
      1.86000000	      3.77730706	      0.07640355	     65.40054065	      0.78330182	      0.89033052	      0.64895554	     22.76863892	     -1.08783283	      4.73078470	    -18.28744900	     -2.04606055	      9.25102489	    -15.40385825	     -1.04847359	      6.05003682	    -23.41574891	     13.14163682	    -13.13519133	     -6.97579947	     -1.57877262	     -6.55699814
      1.87000000	      4.01341715	     -0.14144056	     66.06971149	      0.78996674	      0.89052322	      0.64046203	     22.55914183	     -0.65107977	      4.58322536	    -19.09005557	     -2.24468572	      8.92876361	    -15.29957490	     -1.71681759	      5.69191911	    -24.50067048	     11.89100589	    -13.12017527	     -6.64475503	     -1.24076987	     -6.18857072
      1.88000000	      4.31052158	     -0.35252998	     66.71352281	      0.79656822	      0.89093410	      0.63188843	     22.34202440	     -0.18512778	      4.33230577	    -19.92382748	     -2.38792669	      8.75573354	    -15.07903299	     -2.41945574	      5.21376402	    -25.80790173	     10.48535259	    -13.08679638	     -6.34055697	     -0.83916115	     -5.79364203
      1.89000000	      4.67441731	     -0.55749109	     67.33993336	      0.80306973	      0.89154267	      0.62329055	     22.09834261	      0.31422328	      3.99769951	    -20.75382243	     -2.48918068	      8.76927057	    -14.70964041	     -3.17050142	      4.61518032	    -27.38424961	      8.96257166	    -13.01051921	     -6.07170184	     -0.36787745	     -5.39010077
      1.90000000	      5.10523147	     -0.75641891	     67.96467753	      0.80944931	      0.89234424	      0.61466133	     21.78764601	      0.84335819	      3.58842670	    -21.50656324	     -2.51424675	      9.01486212	    -14.19240561	     -3.97817663	      3.95330758	    -29.20887425	      7.28453217	    -12.89116955	     -5.83325278	      0.17301281	     -4.97944107
